# Blender 3.6.4
# www.blender.org
mtllib CoopCollider.mtl
o ColliderMesh
v 2.647119 0.000000 -1.413515
v 2.647119 4.039018 -1.413515
v 2.647119 0.000000 1.587502
v 2.647119 4.039018 1.587502
v -2.796287 0.000000 -1.413515
v -2.796287 4.039018 -1.413515
v -2.796287 0.000000 1.587502
v -2.796287 4.039018 1.587502
v 0.295505 0.000000 -2.794142
v 0.295505 1.326763 -2.794142
v 0.295505 0.000000 -0.794142
v 0.295505 1.326763 -0.794142
v -1.704495 0.000000 -2.794142
v -1.704495 1.326763 -2.794142
v -1.704495 0.000000 -0.794142
v -1.704495 1.326763 -0.794142
vn 1.0000 -0.0000 -0.0000
vn -0.0000 -0.0000 1.0000
vn -1.0000 -0.0000 -0.0000
vn -0.0000 -0.0000 -1.0000
vt 0.375000 0.000000
vt 0.625000 0.000000
vt 0.625000 0.250000
vt 0.375000 0.250000
vt 0.625000 0.500000
vt 0.375000 0.500000
vt 0.625000 0.750000
vt 0.375000 0.750000
vt 0.625000 1.000000
vt 0.375000 1.000000
s 0
f 1/1/1 2/2/1 4/3/1 3/4/1
f 3/4/2 4/3/2 8/5/2 7/6/2
f 7/6/3 8/5/3 6/7/3 5/8/3
f 5/8/4 6/7/4 2/9/4 1/10/4
f 9/1/1 10/2/1 12/3/1 11/4/1
f 15/6/3 16/5/3 14/7/3 13/8/3
f 13/8/4 14/7/4 10/9/4 9/10/4
